<?xml version="1.0" standalone="no"?><!DOCTYPE svg PUBLIC "-//W3C//DTD SVG 1.1//EN" "http://www.w3.org/Graphics/SVG/1.1/DTD/svg11.dtd"><svg t="1510155291989" class="icon" style="" viewBox="0 0 1024 1024" version="1.1" xmlns="http://www.w3.org/2000/svg" p-id="1868" xmlns:xlink="http://www.w3.org/1999/xlink" width="128" height="128"><defs><style type="text/css"></style></defs><path d="M887.567701 275.068799 529.404392 68.283176c-10.770298-6.217608-24.037463-6.217608-34.808784 0L136.432299 275.068799c-10.769274 6.218632-17.404392 17.709337-17.404392 30.144554l0 413.57227c0 12.435217 6.634094 23.926946 17.404392 30.144554l358.163309 206.785623c5.385661 3.108804 11.394515 4.66423 17.404392 4.66423s12.018731-1.555425 17.404392-4.66423L887.567701 748.930177c10.769274-6.217608 17.404392-17.709337 17.404392-30.144554L904.972093 305.213353C904.972093 292.778136 898.337999 281.287431 887.567701 275.068799zM512 138.621151 785.960559 296.792567 512 454.963982 238.039441 296.792567 512 138.621151zM188.644451 348.660888l288.546765 166.592202 0 350.028025L188.644451 698.689936 188.644451 348.660888zM546.80776 865.282139 546.80776 515.254114l288.547789-166.593226 0 350.029048L546.80776 865.282139z" p-id="1869"></path></svg>